<svg xmlns="http://www.w3.org/2000/svg" viewBox="0 0 583.21 192.17"><defs><style>.cls-1{fill:#2a286b;}.cls-2,.cls-3{fill:none;stroke:#29c2ea;stroke-linecap:round;}.cls-2{stroke-width:6px;}.cls-3{stroke-width:3px;}.cls-4{fill:#29c2ea;}</style></defs><g id="Layer_2" data-name="Layer 2"><g id="Layer_1-2" data-name="Layer 1"><path class="cls-1" d="M514.09,113.14a8.34,8.34,0,1,0,.08,16.68,10.61,10.61,0,0,0,6.49-2.19,1.81,1.81,0,0,0,.86-1.4v-4a1,1,0,0,0-1.13-1.15h-5.48a.85.85,0,0,0,0,1.69h4.87v3.33a8.86,8.86,0,0,1-5.59,2,6.4,6.4,0,0,1-6.54-6.63,6.33,6.33,0,0,1,6.37-6.49,7.26,7.26,0,0,1,4.16,1.33,1.42,1.42,0,0,0,.86.31.79.79,0,0,0,.76-.88c0-.22-.1-.44-.44-.76a8.61,8.61,0,0,0-5.27-1.78m-13.23,15.44V114.14a.94.94,0,0,0-1.87,0v12.6l-9.25-12.52c-.47-.64-.76-.93-1.42-.93h-.18a1.15,1.15,0,0,0-1.1,1.27v14.26a.87.87,0,0,0,.93.86.85.85,0,0,0,.93-.86V116.05l9.16,12.63a1.86,1.86,0,0,0,1.6,1h.07a1.09,1.09,0,0,0,1.13-1.1m-21.45-14.44v14.68a.88.88,0,0,0,.94.86.86.86,0,0,0,.93-.86V114.14a.85.85,0,0,0-.93-.85.87.87,0,0,0-.94.85m-5.73,14.44V114.14a.94.94,0,0,0-1.87,0v12.6l-9.25-12.52c-.47-.64-.76-.93-1.42-.93H461a1.15,1.15,0,0,0-1.1,1.27v14.26a.94.94,0,0,0,1.87,0V116.05l9.15,12.63a1.86,1.86,0,0,0,1.6,1h.07a1.09,1.09,0,0,0,1.13-1.1m-29-6.73v-6.27c0-.29.13-.44.45-.44h3.44c3,0,4.23,1.47,4.23,3.36s-1.25,3.35-4.23,3.35Zm10.06-3.38c0-2.76-1.89-5-6-5h-5a.79.79,0,0,0-.88.83v14.56a.85.85,0,0,0,.93.86.84.84,0,0,0,.93-.86v-5.26h3.1l5.66,5.68a1.12,1.12,0,0,0,.79.44,1,1,0,0,0,1-.91,1,1,0,0,0-.4-.71L450,123.44a5,5,0,0,0,4.72-5m-27.47,5,3.52-8.29h.05l3.44,8.29Zm7.7,1.71,1.62,3.84a1,1,0,0,0,.89.64.83.83,0,0,0,.93-.86,2,2,0,0,0-.12-.54l-5.75-13.67c-.37-.86-.84-1.32-1.68-1.32h-.1c-.83,0-1.27.46-1.62,1.32l-5.8,13.4a2.06,2.06,0,0,0-.23.81.84.84,0,0,0,.89.86,1,1,0,0,0,.91-.64l1.62-3.84Zm-24.6,2.18v-5.09h6.15c.67,0,1-.29,1-.86s-.34-.85-1-.85h-6.15v-5a.38.38,0,0,1,.44-.44h8.07c.64,0,1-.29,1-.83s-.35-.88-1-.88h-9.35c-.66,0-1,.32-1,.88v14.37c0,.58.34.85,1,.85H419c.64,0,1-.27,1-.85s-.34-.86-1-.86h-8.15a.38.38,0,0,1-.44-.44m-17-13.24v14.54c0,.58.34.85,1,.85h9.24c.64,0,1-.27,1-.85s-.37-.86-1-.86h-7.94c-.32,0-.44-.15-.44-.44V114.14a.94.94,0,0,0-1.87,0m-19.48,1v13.68a.94.94,0,0,0,1.87,0V115.14h5.48c.64,0,1-.29,1-.85s-.34-.86-1-.86H368.38c-.66,0-1,.32-1,.88s.34.83,1,.83Zm-21.45,7.61v-8.61a.94.94,0,0,0-1.87,0v8.79c0,3.94,2.46,6.9,6.72,6.9s6.71-3,6.71-6.9v-8.79a.94.94,0,0,0-1.87,0v8.61c0,3.21-1.72,5.29-4.84,5.29s-4.85-2.13-4.85-5.29M337.47,128a6.56,6.56,0,1,1,6.54-6.56,6.37,6.37,0,0,1-6.54,6.56m0,1.78a8.34,8.34,0,1,0-8.54-8.34,8.27,8.27,0,0,0,8.54,8.34m-18.08-2h-4.16c-.32,0-.44-.15-.44-.44v-4.77h5.26c2.17,0,3.27,1.12,3.27,2.52,0,1.81-1.25,2.69-3.93,2.69m-4.6-6.87v-5.36c0-.3.12-.44.44-.44h3.47c2.68,0,4.23,1,4.23,2.93s-1.5,2.87-3.54,2.87Zm-1,8.58h6c3.54,0,5.5-1.88,5.5-4.3a3.75,3.75,0,0,0-3-3.6A3.92,3.92,0,0,0,324.8,118c0-2.77-2-4.56-5.83-4.56H313.8a.79.79,0,0,0-.88.84V128.7a.79.79,0,0,0,.88.83m-16.43-6,3.52-8.29h.05l3.44,8.29Zm7.7,1.71,1.62,3.84a1,1,0,0,0,.89.64.84.84,0,0,0,.94-.86,1.72,1.72,0,0,0-.13-.54l-5.75-13.67c-.37-.86-.84-1.32-1.68-1.32h-.09c-.84,0-1.28.46-1.63,1.32l-5.8,13.4a2,2,0,0,0-.22.81.83.83,0,0,0,.88.86A1,1,0,0,0,295,129l1.62-3.84Zm-30.13-12.06a8.34,8.34,0,1,0,.07,16.68,10.61,10.61,0,0,0,6.5-2.19,1.81,1.81,0,0,0,.86-1.4v-4a1,1,0,0,0-1.13-1.15h-5.49a.85.85,0,0,0,0,1.69h4.87v3.33a8.83,8.83,0,0,1-5.58,2,6.4,6.4,0,0,1-6.55-6.63,6.33,6.33,0,0,1,6.38-6.49,7.25,7.25,0,0,1,4.15,1.33,1.47,1.47,0,0,0,.87.31.8.8,0,0,0,.76-.88c0-.22-.1-.44-.44-.76a8.61,8.61,0,0,0-5.27-1.78m-13.23,15.44V114.14a.87.87,0,0,0-.94-.85.85.85,0,0,0-.93.85v12.6l-9.25-12.52c-.47-.64-.76-.93-1.43-.93H249a1.15,1.15,0,0,0-1.1,1.27v14.26a.87.87,0,0,0,.93.86.86.86,0,0,0,.93-.86V116.05l9.16,12.63a1.85,1.85,0,0,0,1.59,1h.08a1.09,1.09,0,0,0,1.13-1.1m-21.45-14.44v14.68a.94.94,0,0,0,1.87,0V114.14a.94.94,0,0,0-1.87,0m-5.73,14.44V114.14a.87.87,0,0,0-.94-.85.85.85,0,0,0-.93.85v12.6l-9.25-12.52c-.47-.64-.76-.93-1.43-.93h-.17a1.15,1.15,0,0,0-1.1,1.27v14.26a.87.87,0,0,0,.93.86.86.86,0,0,0,.93-.86V116.05l9.16,12.63a1.85,1.85,0,0,0,1.59,1h.08a1.09,1.09,0,0,0,1.13-1.1m-29-6.73v-6.27c0-.29.13-.44.45-.44h3.44c3,0,4.23,1.47,4.23,3.36s-1.25,3.35-4.23,3.35Zm10.06-3.38c0-2.76-1.89-5-6-5h-5a.79.79,0,0,0-.88.83v14.56a.85.85,0,0,0,.93.86.84.84,0,0,0,.93-.86v-5.26h3.1l5.66,5.68a1.1,1.1,0,0,0,.79.44,1,1,0,0,0,1-.91,1,1,0,0,0-.4-.71l-4.77-4.62a5,5,0,0,0,4.72-5m-27.47,5,3.52-8.29h.05l3.44,8.29Zm7.7,1.71,1.62,3.84a1,1,0,0,0,.89.64.83.83,0,0,0,.93-.86,2,2,0,0,0-.12-.54l-5.76-13.67c-.37-.86-.83-1.32-1.67-1.32h-.1c-.83,0-1.28.46-1.62,1.32L184.2,128a2.19,2.19,0,0,0-.22.81.84.84,0,0,0,.89.86,1,1,0,0,0,.91-.64l1.62-3.84Zm-24.6,2.18v-5.09h6.15c.66,0,1-.29,1-.86s-.35-.85-1-.85h-6.15v-5c0-.29.12-.44.44-.44h8.07c.64,0,1-.29,1-.83s-.34-.88-1-.88h-9.35c-.66,0-1,.32-1,.88v14.37c0,.58.35.85,1,.85h9.44c.64,0,1-.27,1-.85s-.35-.86-1-.86h-8.14c-.32,0-.44-.15-.44-.44m-17-13.24v14.54c0,.58.34.85,1,.85h9.25c.64,0,1-.27,1-.85s-.37-.86-1-.86h-7.94c-.32,0-.45-.15-.45-.44V114.14a.85.85,0,0,0-.93-.85.86.86,0,0,0-.93.85"/><path class="cls-2" d="M58.12,3s118.7,93.09,0,186.17"/><line class="cls-3" x1="16.85" y1="96.09" x2="574.82" y2="96.09"/><path class="cls-4" d="M583.21,96.09,569.32,91s5.5,5.06,0,10.11l13.89-5"/><path class="cls-1" d="M495,39.68h24V79.84h8V39.68h24v-8H495Zm-.1,40.16L474.27,39.76a31.55,31.55,0,0,0-2.43-4,15.62,15.62,0,0,0-2.13-2.43,6,6,0,0,0-1.88-1.19,5.37,5.37,0,0,0-1.79-.32h-1.18a4.82,4.82,0,0,0-1.59.32,7,7,0,0,0-2,1.19A14,14,0,0,0,459,35.75a27.3,27.3,0,0,0-2.48,4L435.81,79.84h9.32l20.22-38.57,20.12,38.57ZM376,39.68h24V79.84h8V39.68h24v-8H376Zm-.1,40.16L355.32,39.76a31.55,31.55,0,0,0-2.43-4,15.62,15.62,0,0,0-2.13-2.43,6,6,0,0,0-1.88-1.19,5.37,5.37,0,0,0-1.79-.32H345.9a4.82,4.82,0,0,0-1.58.32,7.12,7.12,0,0,0-2,1.19,14.34,14.34,0,0,0-2.27,2.43,26.48,26.48,0,0,0-2.48,4L316.86,79.84h9.32L346.4,41.27l20.12,38.57Zm-66.71-8v8H253.32V31.65h7.93V71.81Zm-63.74,8L224.87,39.76a31.55,31.55,0,0,0-2.43-4,15.62,15.62,0,0,0-2.13-2.43,6,6,0,0,0-1.88-1.19,5.37,5.37,0,0,0-1.79-.32h-1.19a4.82,4.82,0,0,0-1.58.32,7,7,0,0,0-2,1.19,14,14,0,0,0-2.28,2.43,27.3,27.3,0,0,0-2.48,4L186.41,79.84h9.32L216,41.27l20.12,38.57Zm-65.72-8v8H123.86V31.65h7.93V71.81Z"/><path class="cls-4" d="M168.58,154.76V143c0-.29.12-.44.44-.44h2.36c3.77,0,6.69,2.2,6.69,6.32s-2.92,6.36-6.69,6.36H169c-.32,0-.44-.15-.44-.44m-1,2.15H171c5.69,0,9.05-3.4,9.05-8.07s-3.36-8-9.05-8h-3.42a.79.79,0,0,0-.88.83v14.44a.79.79,0,0,0,.88.83M161,156V141.52a.88.88,0,0,0-.94-.86.86.86,0,0,0-.93.86v12.6l-9.25-12.53c-.47-.63-.76-.93-1.43-.93h-.17a1.15,1.15,0,0,0-1.1,1.28V156.2a.87.87,0,0,0,.93.86.86.86,0,0,0,.93-.86V143.43l9.15,12.62a1.86,1.86,0,0,0,1.6,1h.08A1.1,1.1,0,0,0,161,156m-29.37-5.09,3.52-8.3h.05l3.44,8.3Zm7.7,1.71,1.62,3.84a1,1,0,0,0,.89.64.83.83,0,0,0,.93-.86,2,2,0,0,0-.12-.54L136.87,142c-.37-.86-.83-1.32-1.67-1.32h-.1c-.83,0-1.28.46-1.62,1.32l-5.81,13.4a2.15,2.15,0,0,0-.22.81.84.84,0,0,0,.89.86,1,1,0,0,0,.91-.64l1.62-3.84Z"/><path class="cls-1" d="M539.32,140.66a8.35,8.35,0,1,0,.08,16.69,10.59,10.59,0,0,0,6.49-2.2,1.81,1.81,0,0,0,.86-1.4v-4a1,1,0,0,0-1.13-1.14h-5.48a.84.84,0,1,0,0,1.68H545v3.33a8.86,8.86,0,0,1-5.59,2,6.39,6.39,0,0,1-6.54-6.63,6.32,6.32,0,0,1,6.37-6.48,7.27,7.27,0,0,1,4.16,1.32,1.44,1.44,0,0,0,.86.32.8.8,0,0,0,.76-.88,1,1,0,0,0-.44-.76,8.61,8.61,0,0,0-5.27-1.79M526.09,156.1V141.66a.94.94,0,0,0-1.87,0v12.61L515,141.74c-.46-.64-.76-.93-1.42-.93h-.17a1.15,1.15,0,0,0-1.11,1.27v14.27a.94.94,0,0,0,1.87,0V143.57l9.15,12.63a1.86,1.86,0,0,0,1.6,1H525a1.09,1.09,0,0,0,1.13-1.1m-21.44-14.44v14.69a.86.86,0,0,0,.93.85.85.85,0,0,0,.93-.85V141.66a.86.86,0,0,0-.93-.85.87.87,0,0,0-.93.85m-17.64,0v14.69a.94.94,0,0,0,1.87,0v-3.94l3.78-3.5,5.73,7.73c.28.34.5.56.89.56a.9.9,0,0,0,.74-1.49l-6-8.07,5.65-5.22a1,1,0,0,0,.4-.76,1,1,0,0,0-.91-.85,1.23,1.23,0,0,0-.79.39l-9.49,8.86v-8.4a.94.94,0,0,0-1.87,0m-5.73,14.44V141.66a.88.88,0,0,0-.94-.85.86.86,0,0,0-.93.85v12.61l-9.25-12.53c-.47-.64-.76-.93-1.43-.93h-.17a1.15,1.15,0,0,0-1.11,1.27v14.27a.87.87,0,0,0,.94.85.85.85,0,0,0,.93-.85V143.57l9.15,12.63a1.87,1.87,0,0,0,1.6,1h.08a1.09,1.09,0,0,0,1.13-1.1m-21.45-14.44v14.69a.94.94,0,0,0,1.87,0V141.66a.94.94,0,0,0-1.87,0m-7.63,8.18v6.5a.88.88,0,0,0,.94.86.86.86,0,0,0,.93-.86V141.67a.86.86,0,0,0-.93-.86.88.88,0,0,0-.94.86v6.46h-9.35v-6.46a.85.85,0,0,0-.93-.86.87.87,0,0,0-.93.86v14.67a.87.87,0,0,0,.93.86.85.85,0,0,0,.93-.86v-6.5ZM429,142.67v13.67a.94.94,0,0,0,1.87,0V142.67h5.48c.64,0,1-.3,1-.86s-.35-.85-1-.85H423.52c-.66,0-1,.31-1,.88s.34.83,1,.83Zm-23.66,0v13.67a.93.93,0,0,0,1.86,0V142.67h5.49c.64,0,1-.3,1-.86s-.34-.85-1-.85H399.86c-.66,0-1,.31-1,.88s.35.83,1,.83Zm-21.45,7.61v-8.62a.94.94,0,0,0-1.87,0v8.79c0,3.94,2.46,6.9,6.71,6.9s6.72-3,6.72-6.9v-8.79a.94.94,0,0,0-1.87,0v8.62c0,3.2-1.72,5.28-4.85,5.28s-4.84-2.13-4.84-5.28m-15,5.28a6.56,6.56,0,1,1,6.55-6.55,6.37,6.37,0,0,1-6.55,6.55m0,1.79a8.35,8.35,0,1,0-8.53-8.34,8.27,8.27,0,0,0,8.53,8.34m-18.07-2h-4.16c-.32,0-.45-.14-.45-.44v-4.77h5.27c2.17,0,3.27,1.13,3.27,2.52,0,1.81-1.25,2.69-3.93,2.69m-4.61-6.87v-5.36c0-.29.13-.44.45-.44h3.47c2.68,0,4.23,1,4.23,2.94s-1.5,2.86-3.54,2.86Zm-1,8.58h6c3.55,0,5.51-1.88,5.51-4.3a3.76,3.76,0,0,0-3-3.6,3.91,3.91,0,0,0,2.51-3.64c0-2.77-2-4.55-5.83-4.55h-5.17a.78.78,0,0,0-.88.83v14.43a.78.78,0,0,0,.88.83m-16.43-6,3.52-8.29h.05l3.44,8.29Zm7.7,1.71,1.62,3.84a1,1,0,0,0,.89.64.83.83,0,0,0,.93-.86,1.85,1.85,0,0,0-.12-.53l-5.75-13.68c-.37-.86-.84-1.32-1.68-1.32h-.1c-.83,0-1.27.46-1.62,1.32l-5.8,13.41a2,2,0,0,0-.23.8.84.84,0,0,0,.89.86,1,1,0,0,0,.91-.64l1.62-3.84Zm-30.13-12.06a8.35,8.35,0,1,0,.07,16.69,10.62,10.62,0,0,0,6.5-2.2,1.84,1.84,0,0,0,.86-1.4v-4a1,1,0,0,0-1.13-1.14h-5.49a.84.84,0,1,0,0,1.68h4.87v3.33a8.83,8.83,0,0,1-5.58,2,6.39,6.39,0,0,1-6.55-6.63,6.32,6.32,0,0,1,6.38-6.48,7.26,7.26,0,0,1,4.15,1.32,1.46,1.46,0,0,0,.86.32.81.81,0,0,0,.77-.88c0-.23-.1-.45-.45-.76a8.54,8.54,0,0,0-5.26-1.79M293.19,156.1V141.66a.88.88,0,0,0-.94-.85.86.86,0,0,0-.93.85v12.61l-9.25-12.53c-.47-.64-.77-.93-1.43-.93h-.17a1.15,1.15,0,0,0-1.11,1.27v14.27a.87.87,0,0,0,.94.85.85.85,0,0,0,.93-.85V143.57l9.15,12.63a1.87,1.87,0,0,0,1.6,1h.08a1.09,1.09,0,0,0,1.13-1.1m-21.45-14.44v14.69a.94.94,0,0,0,1.87,0V141.66a.94.94,0,0,0-1.87,0m-17.64,0v14.69a.87.87,0,0,0,.94.85.85.85,0,0,0,.93-.85v-3.94l3.79-3.5,5.73,7.73c.27.34.49.56.88.56a.9.9,0,0,0,.74-1.49l-6-8.07,5.66-5.22a1,1,0,0,0,.39-.76,1,1,0,0,0-.91-.85,1.26,1.26,0,0,0-.79.39L256,150.06v-8.4a.86.86,0,0,0-.93-.85.88.88,0,0,0-.94.85m-5.73,14.44V141.66a.94.94,0,0,0-1.87,0v12.61l-9.25-12.53c-.47-.64-.76-.93-1.42-.93h-.18a1.15,1.15,0,0,0-1.1,1.27v14.27a.94.94,0,0,0,1.87,0V143.57l9.15,12.63a1.86,1.86,0,0,0,1.6,1h.07a1.09,1.09,0,0,0,1.13-1.1m-21.45-14.44v14.69a.87.87,0,0,0,.94.85.85.85,0,0,0,.93-.85V141.66a.86.86,0,0,0-.93-.85.88.88,0,0,0-.94.85m-7.62,8.18v6.5a.94.94,0,0,0,1.87,0V141.67a.94.94,0,0,0-1.87,0v6.46H210v-6.46a.86.86,0,0,0-.93-.86.88.88,0,0,0-.94.86v14.67a.88.88,0,0,0,.94.86.86.86,0,0,0,.93-.86v-6.5Zm-23.2-7.17v13.67a.94.94,0,0,0,1.87,0V142.67h5.49c.64,0,1-.3,1-.86s-.34-.85-1-.85H190.62c-.66,0-1,.31-1,.88s.35.83,1,.83Z"/><line class="cls-3" x1="61.96" y1="15.36" x2="1.51" y2="96"/><line class="cls-3" x1="61.95" y1="176.8" x2="1.5" y2="96.16"/></g></g></svg>